<?xml version="1.0" standalone="no"?>
<!DOCTYPE svg PUBLIC "-//W3C//DTD SVG 20010904//EN"
 "http://www.w3.org/TR/2001/REC-SVG-20010904/DTD/svg10.dtd">
<svg version="1.0" xmlns="http://www.w3.org/2000/svg"
 width="300.000000pt" height="300.000000pt" viewBox="0 0 300.000000 300.000000"
 preserveAspectRatio="xMidYMid meet">

<g transform="translate(0.000000,300.000000) scale(0.100000,-0.100000)"
fill="#000000" stroke="none">
<path d="M1462 2984 c-70 -29 -71 -123 -2 -159 57 -30 122 13 122 80 0 66 -59
105 -120 79z"/>
<path d="M1220 2580 l0 -380 -32 -20 c-18 -11 -36 -20 -40 -20 -5 0 -8 146 -8
325 l0 325 -25 0 -25 0 -2 -292 -3 -293 -43 63 c-59 86 -164 195 -237 247 -62
44 -199 115 -222 115 -9 0 -13 -19 -13 -65 0 -74 -6 -78 -64 -44 l-36 21 0
-71 c0 -79 -4 -82 -56 -50 l-34 21 0 -66 c0 -35 -4 -67 -9 -71 -5 -3 -26 4
-45 16 l-36 21 2 -657 3 -657 225 -125 c124 -69 302 -168 395 -220 313 -175
382 -213 391 -213 5 0 46 23 92 50 46 28 91 50 100 50 10 0 53 -22 97 -50 44
-27 85 -50 91 -50 11 0 98 48 414 225 85 47 257 143 383 213 l227 126 0 653 0
653 -40 -20 c-21 -11 -42 -20 -45 -20 -3 0 -5 34 -5 75 l0 76 -37 -26 c-21
-14 -41 -25 -45 -25 -5 0 -8 32 -8 70 0 39 -3 70 -7 70 -5 0 -21 -9 -38 -20
-49 -32 -55 -27 -55 45 0 80 -2 80 -116 25 -132 -64 -289 -206 -372 -337 -15
-24 -30 -43 -34 -43 -5 0 -8 131 -8 290 0 283 0 290 -20 290 -20 0 -20 -7 -20
-319 0 -182 -4 -322 -9 -325 -5 -4 -23 2 -40 11 l-31 18 0 383 c0 375 0 382
-20 382 -18 0 -20 -7 -20 -82 0 -46 -4 -87 -8 -93 -9 -13 -218 -115 -236 -115
-7 0 -63 25 -125 55 l-111 54 0 91 c0 83 -1 90 -20 90 -20 0 -20 -7 -20 -380z
m155 93 l95 -48 0 -82 c0 -46 -3 -83 -7 -82 -5 0 -51 19 -103 43 l-95 42 -3
87 c-2 55 1 87 7 87 6 0 54 -21 106 -47z m355 -39 l0 -85 -96 -45 c-52 -24
-100 -44 -105 -44 -6 0 -9 34 -7 82 l3 82 95 47 c52 26 98 48 103 48 4 1 7
-38 7 -85z m-1041 -74 c120 -65 242 -185 352 -347 27 -40 49 -76 49 -80 0 -4
-36 -28 -80 -52 l-80 -44 0 -332 0 -332 25 -11 c13 -6 123 -68 242 -138 120
-69 236 -137 259 -150 l41 -23 114 66 c63 36 192 110 287 165 l172 100 -2 326
-3 326 -79 46 c-44 25 -80 48 -80 52 -1 4 24 45 54 90 78 119 246 284 336 331
40 20 75 37 78 37 3 0 6 -305 6 -677 l0 -678 -173 -94 c-94 -52 -290 -159
-435 -239 -171 -94 -270 -142 -283 -139 -16 4 -213 110 -754 406 l-120 66 -3
678 c-1 493 1 677 9 677 6 0 37 -14 68 -30z m677 -114 c97 -43 99 -44 99 -77
0 -31 -5 -36 -90 -85 -49 -29 -96 -53 -102 -54 -10 0 -13 32 -13 130 0 72 2
130 4 130 2 0 48 -20 102 -44z m360 -213 c-3 -3 -49 21 -103 54 -79 47 -99 63
-101 84 -3 24 5 29 100 72 l103 46 3 -126 c1 -69 1 -128 -2 -130z m-1185 237
c18 -10 19 -28 19 -635 l0 -624 63 -33 c34 -19 245 -134 468 -256 l407 -222
323 177 c178 97 387 211 464 253 l140 76 3 626 2 625 25 11 25 12 0 -649 0
-649 -127 -70 c-307 -168 -816 -444 -837 -453 -19 -9 -58 9 -287 133 -145 80
-366 200 -491 268 l-228 124 0 648 c0 356 3 648 6 648 3 0 14 -5 25 -10z m-81
-709 c0 -467 3 -601 13 -609 6 -6 154 -86 327 -179 554 -298 640 -345 640
-352 0 -3 -30 -22 -68 -43 l-67 -36 -275 154 c-151 84 -371 206 -487 271
l-213 118 0 598 c0 328 3 597 8 597 31 -1 32 -15 34 -595 l3 -579 155 -86 c85
-47 232 -128 325 -179 94 -52 230 -127 303 -168 111 -62 136 -72 152 -63 12 6
18 15 15 20 -3 5 -40 28 -83 51 -117 64 -625 344 -729 402 l-93 52 0 623 c0
620 0 623 20 612 20 -11 20 -21 20 -609z m2110 -5 l0 -624 -212 -118 c-117
-64 -319 -175 -448 -246 -129 -72 -238 -133 -243 -137 -4 -4 3 -12 16 -18 24
-11 99 27 527 266 47 27 158 88 247 137 l163 89 0 576 c0 572 1 599 32 599 4
0 8 -270 8 -599 l0 -599 -82 -45 c-46 -25 -265 -147 -487 -271 l-405 -225 -55
31 c-31 17 -62 36 -69 42 -12 12 48 46 811 455 l157 84 0 600 c0 560 1 601 18
613 9 7 18 14 20 14 1 0 2 -281 2 -624z m-1193 346 l122 -62 125 62 125 62 35
-19 c20 -11 36 -23 36 -26 0 -13 -310 -170 -328 -167 -23 4 -312 161 -312 170
0 7 63 49 70 45 3 -1 60 -30 127 -65z m-53 -132 l173 -90 177 91 176 91 0 -64
0 -63 -130 -68 -130 -68 0 -212 0 -212 -45 -25 -46 -25 -47 25 -47 25 -5 214
-5 213 -127 67 -128 66 0 63 c0 34 2 62 6 62 3 0 83 -41 178 -90z m-304 -244
l0 -274 193 -108 c105 -59 209 -118 229 -131 21 -13 46 -23 55 -23 10 1 119
58 243 129 l225 128 3 277 c2 268 3 276 22 276 19 0 20 -7 20 -288 l0 -288
-122 -69 c-68 -38 -180 -102 -251 -142 -70 -40 -132 -73 -138 -73 -11 0 -398
215 -481 267 l-38 23 0 285 c0 278 0 285 20 285 20 0 20 -7 20 -274z m860 37
c0 -105 -4 -139 -21 -188 -21 -59 -23 -61 -109 -112 -49 -29 -91 -53 -94 -53
-3 0 -6 18 -6 39 0 38 3 41 58 72 49 27 61 39 75 75 9 24 14 44 11 44 -3 0
-23 -9 -46 -21 -52 -26 -103 -17 -102 19 0 12 1 48 2 80 2 56 3 59 37 75 l35
17 0 -65 c0 -36 2 -65 5 -65 2 0 20 8 40 17 l35 17 0 71 c0 71 0 72 33 88 17
8 35 16 40 16 4 1 7 -56 7 -126z m-725 100 l37 -17 -3 -66 c-5 -105 13 -117
54 -35 l27 55 30 -15 c17 -9 30 -20 30 -25 0 -5 -14 -38 -31 -73 l-32 -64 32
-94 c17 -52 31 -98 31 -102 0 -5 -18 2 -39 14 -36 20 -41 28 -57 91 -10 39
-24 78 -31 87 -10 13 -12 5 -13 -51 0 -38 -3 -68 -6 -68 -4 0 -22 9 -40 21
l-34 21 0 169 c0 93 2 169 5 169 2 0 21 -8 40 -17z"/>
<path d="M179 2195 c-64 -123 -113 -259 -140 -390 -20 -94 -24 -137 -23 -300
0 -169 3 -204 28 -315 28 -129 83 -280 139 -385 l32 -60 90 2 90 2 54 -66 c43
-52 52 -69 44 -82 -5 -9 -24 -41 -41 -72 l-32 -55 70 -62 69 -62 71 45 c38 25
74 45 78 45 6 0 79 -50 139 -95 2 -1 -4 -38 -14 -84 -9 -45 -14 -83 -12 -84
10 -8 186 -77 195 -77 6 0 32 32 58 70 31 44 55 70 67 70 32 0 166 -22 176
-28 5 -4 21 -47 34 -97 l24 -90 122 -3 122 -3 11 43 c6 24 19 68 28 98 l17 55
70 12 c126 21 124 22 180 -60 l49 -73 66 27 c36 15 81 34 102 42 l36 15 -14
74 c-8 40 -14 78 -14 83 0 11 77 72 118 94 21 11 31 7 99 -35 l75 -47 65 65
65 66 -36 64 c-20 36 -36 70 -36 75 0 6 24 39 52 73 l53 62 87 -7 87 -7 54
113 c145 302 185 599 126 929 -23 134 -56 234 -118 363 -87 183 -80 226 -81
-494 l0 -636 -307 -174 c-368 -207 -580 -326 -688 -386 l-80 -44 -45 20 c-106
48 -180 48 -287 1 -53 -23 -10 -42 -372 162 -146 83 -375 212 -508 287 l-243
136 -2 635 -3 635 -46 -90z"/>
</g>
</svg>
